<?xml version="1.0" standalone="no"?>
<!DOCTYPE svg PUBLIC "-//W3C//DTD SVG 1.1//EN" "http://www.w3.org/Graphics/SVG/1.1/DTD/svg11.dtd">
<svg xmlns="http://www.w3.org/2000/svg" xmlns:xlink="http://www.w3.org/1999/xlink" id="visual" viewBox="0 0 4096 2160" width="4096" height="2160" version="1.1"><rect x="0" y="0" width="4096" height="2160" fill="#001220"/><defs><linearGradient id="grad1_0" x1="47.3%" y1="0%" x2="100%" y2="100%"><stop offset="12.074074074074073%" stop-color="#11274e" stop-opacity="1"/><stop offset="87.92592592592592%" stop-color="#11274e" stop-opacity="1"/></linearGradient></defs><defs><linearGradient id="grad1_1" x1="47.3%" y1="0%" x2="100%" y2="100%"><stop offset="12.074074074074073%" stop-color="#11274e" stop-opacity="1"/><stop offset="87.92592592592592%" stop-color="#001220" stop-opacity="1"/></linearGradient></defs><defs><linearGradient id="grad2_0" x1="0%" y1="0%" x2="52.7%" y2="100%"><stop offset="12.074074074074073%" stop-color="#11274e" stop-opacity="1"/><stop offset="87.92592592592592%" stop-color="#11274e" stop-opacity="1"/></linearGradient></defs><defs><linearGradient id="grad2_1" x1="0%" y1="0%" x2="52.7%" y2="100%"><stop offset="12.074074074074073%" stop-color="#001220" stop-opacity="1"/><stop offset="87.92592592592592%" stop-color="#11274e" stop-opacity="1"/></linearGradient></defs><g transform="translate(4096, 0)"><path d="M0 1944C-211.5 1814.4 -422.9 1684.9 -667 1610.3C-911.1 1535.8 -1187.9 1516.2 -1374.6 1374.6C-1561.3 1233 -1657.9 969.3 -1737.8 719.8C-1817.7 470.4 -1880.9 235.2 -1944 0L0 0Z" fill="#031d37"/><path d="M0 972C-105.7 907.2 -211.5 842.4 -333.5 805.2C-455.6 767.9 -594 758.1 -687.3 687.3C-780.7 616.5 -829 484.6 -868.9 359.9C-908.9 235.2 -940.4 117.6 -972 0L0 0Z" fill="#11274e"/></g><g transform="translate(0, 2160)"><path d="M0 -1944C251.8 -1914.1 503.6 -1884.3 743.9 -1796C984.3 -1707.7 1213.2 -1561 1367.5 -1367.5C1521.8 -1174 1601.5 -933.7 1685.2 -698C1768.8 -462.3 1856.4 -231.1 1944 0L0 0Z" fill="#031d37"/><path d="M0 -972C125.9 -957.1 251.8 -942.1 372 -898C492.1 -853.9 606.6 -780.5 683.8 -683.8C760.9 -587 800.8 -466.9 842.6 -349C884.4 -231.1 928.2 -115.6 972 0L0 0Z" fill="#11274e"/></g></svg>