<svg xmlns="http://www.w3.org/2000/svg" xmlns:xlink="http://www.w3.org/1999/xlink" width="1400" zoomAndPan="magnify" viewBox="0 0 1050 374.999991" height="500" preserveAspectRatio="xMidYMid meet" version="1.0"><defs><g/><clipPath id="f244de857b"><path d="M 105 109 L 224 109 L 224 256 L 105 256 Z M 105 109 " clip-rule="nonzero"/></clipPath><clipPath id="83c9b4a009"><path d="M 105.519531 152.460938 L 127.503906 121.011719 C 135.238281 109.761719 140.195312 109.308594 152.476562 109.308594 L 179.621094 109.308594 C 182.835938 109.308594 186.277344 109.160156 189.464844 109.617188 C 197.335938 110.746094 202.128906 119.515625 199.835938 126.875 C 198.632812 130.738281 195.167969 136.152344 193.089844 139.878906 C 190.234375 144.996094 187.472656 150.171875 184.683594 155.324219 C 182.746094 158.902344 178.554688 164.121094 183.421875 167.597656 C 186.203125 169.585938 200.335938 168.808594 204.066406 168.808594 C 206.921875 168.804688 210.683594 168.492188 213.402344 169.257812 C 218.078125 170.578125 222.078125 175.109375 222.941406 179.875 C 224.253906 187.097656 220.40625 191.21875 215.941406 195.996094 L 165.464844 250.417969 C 163.847656 252.144531 162.160156 253.832031 160.625 255.628906 C 159.390625 254.328125 157.535156 250.203125 156.578125 248.4375 L 111.1875 163.390625 C 109.253906 159.785156 107.105469 156.242188 105.519531 152.460938 Z M 105.519531 152.460938 " clip-rule="nonzero"/></clipPath><clipPath id="09d72dde21"><path d="M 71 152 L 161 152 L 161 279 L 71 279 Z M 71 152 " clip-rule="nonzero"/></clipPath><clipPath id="906d24b8ba"><path d="M 160.625 255.628906 C 156.699219 260.078125 145.417969 273.117188 141.046875 276.246094 C 131.027344 283.414062 117.054688 275.539062 118.9375 263.191406 C 119.140625 261.871094 119.519531 260.554688 119.835938 259.253906 L 125.453125 236.078125 C 126.019531 233.761719 127.210938 230.601562 126.832031 228.261719 C 125.851562 222.210938 119.1875 223.261719 114.878906 223.261719 L 95.886719 223.265625 C 92.589844 223.265625 88.160156 223.542969 84.988281 222.964844 C 77.976562 221.695312 72.796875 215.480469 71.621094 208.628906 C 70.539062 202.328125 72.910156 197.851562 76.398438 193.070312 L 105.519531 152.460938 C 107.105469 156.242188 109.253906 159.785156 111.1875 163.390625 L 156.578125 248.4375 C 157.535156 250.203125 159.390625 254.328125 160.625 255.628906 Z M 160.625 255.628906 " clip-rule="nonzero"/></clipPath><clipPath id="0dc70a5a9f"><path d="M 104 153 L 164 153 L 164 253 L 104 253 Z M 104 153 " clip-rule="nonzero"/></clipPath><clipPath id="6e534aca4a"><path d="M 102.941406 155.890625 L 109.234375 152.339844 L 164.605469 250.535156 L 158.3125 254.085938 Z M 102.941406 155.890625 " clip-rule="nonzero"/></clipPath><clipPath id="a0bba6eeff"><path d="M 106.089844 154.113281 C 107.828125 153.132812 110.03125 153.75 111.011719 155.488281 L 162.828125 247.382812 C 163.808594 249.121094 163.195312 251.324219 161.457031 252.304688 C 159.71875 253.285156 157.515625 252.671875 156.535156 250.933594 L 104.714844 159.035156 C 103.738281 157.296875 104.351562 155.09375 106.089844 154.113281 Z M 106.089844 154.113281 " clip-rule="nonzero"/></clipPath><clipPath id="1df302a6af"><path d="M 156.898438 247.980469 L 161.304688 247.980469 L 161.304688 255.855469 L 156.898438 255.855469 Z M 156.898438 247.980469 " clip-rule="nonzero"/></clipPath><clipPath id="aa4da21096"><path d="M 161.269531 250.082031 C 159.121094 256.042969 158.152344 255.695312 157.667969 255.28125 C 157.25 254.933594 156.902344 254.035156 156.902344 253.480469 C 156.972656 252.855469 157.527344 252.023438 158.011719 251.746094 C 158.566406 251.46875 159.539062 251.46875 160.023438 251.746094 C 160.578125 252.023438 161.132812 252.785156 161.203125 253.410156 C 161.269531 253.964844 160.925781 254.863281 160.507812 255.28125 C 160.023438 255.695312 159.054688 255.972656 158.5 255.765625 C 157.875 255.488281 156.902344 254.378906 156.902344 253.6875 C 156.902344 252.992188 158.566406 252.023438 158.5 251.609375 C 158.359375 251.261719 157.25 251.332031 157.042969 250.984375 C 156.835938 250.429688 157.390625 248.835938 158.011719 248.351562 C 158.429688 248.003906 159.398438 247.863281 159.953125 248.140625 C 160.507812 248.417969 161.269531 250.082031 161.269531 250.082031 " clip-rule="nonzero"/></clipPath><clipPath id="40d6a83ad7"><path d="M 104.738281 152.109375 L 109.144531 152.109375 L 109.144531 159.988281 L 104.738281 159.988281 Z M 104.738281 152.109375 " clip-rule="nonzero"/></clipPath><clipPath id="5f7cef0b33"><path d="M 109.109375 154.210938 C 106.960938 160.171875 105.992188 159.828125 105.507812 159.410156 C 105.089844 159.0625 104.742188 158.164062 104.742188 157.609375 C 104.8125 156.984375 105.367188 156.152344 105.851562 155.875 C 106.40625 155.597656 107.378906 155.597656 107.863281 155.875 C 108.417969 156.152344 108.972656 156.914062 109.042969 157.539062 C 109.109375 158.09375 108.765625 158.996094 108.347656 159.410156 C 107.863281 159.828125 106.890625 160.101562 106.339844 159.894531 C 105.714844 159.617188 104.742188 158.507812 104.742188 157.816406 C 104.742188 157.125 106.40625 156.152344 106.339844 155.738281 C 106.199219 155.390625 105.089844 155.460938 104.882812 155.113281 C 104.675781 154.558594 105.230469 152.964844 105.851562 152.480469 C 106.269531 152.132812 107.238281 151.996094 107.792969 152.273438 C 108.347656 152.546875 109.109375 154.210938 109.109375 154.210938 " clip-rule="nonzero"/></clipPath></defs><g fill="#f2f9ff" fill-opacity="1"><g transform="translate(256.553845, 250.157049)"><g><path d="M 5.0625 -50.578125 C 5.0625 -60.929688 7.015625 -70.019531 10.921875 -77.84375 C 14.835938 -85.675781 20.164062 -91.703125 26.90625 -95.921875 C 33.65625 -100.140625 41.1875 -102.25 49.5 -102.25 C 56.125 -102.25 62.175781 -100.863281 67.65625 -98.09375 C 73.132812 -95.320312 77.4375 -91.585938 80.5625 -86.890625 L 80.5625 -133.671875 L 111.453125 -133.671875 L 111.453125 0 L 80.5625 0 L 80.5625 -14.453125 C 77.675781 -9.628906 73.550781 -5.773438 68.1875 -2.890625 C 62.832031 -0.00390625 56.601562 1.4375 49.5 1.4375 C 41.1875 1.4375 33.65625 -0.695312 26.90625 -4.96875 C 20.164062 -9.238281 14.835938 -15.316406 10.921875 -23.203125 C 7.015625 -31.097656 5.0625 -40.222656 5.0625 -50.578125 Z M 80.5625 -50.40625 C 80.5625 -58.101562 78.421875 -64.179688 74.140625 -68.640625 C 69.867188 -73.097656 64.664062 -75.328125 58.53125 -75.328125 C 52.382812 -75.328125 47.171875 -73.128906 42.890625 -68.734375 C 38.617188 -64.335938 36.484375 -58.285156 36.484375 -50.578125 C 36.484375 -42.867188 38.617188 -36.753906 42.890625 -32.234375 C 47.171875 -27.722656 52.382812 -25.46875 58.53125 -25.46875 C 64.664062 -25.46875 69.867188 -27.695312 74.140625 -32.15625 C 78.421875 -36.613281 80.5625 -42.695312 80.5625 -50.40625 Z M 80.5625 -50.40625 "/></g></g></g><g fill="#f2f9ff" fill-opacity="1"><g transform="translate(379.213598, 250.157049)"><g><path d="M 57.078125 1.4375 C 47.203125 1.4375 38.320312 -0.664062 30.4375 -4.875 C 22.550781 -9.09375 16.347656 -15.113281 11.828125 -22.9375 C 7.316406 -30.769531 5.0625 -39.925781 5.0625 -50.40625 C 5.0625 -60.757812 7.347656 -69.878906 11.921875 -77.765625 C 16.492188 -85.648438 22.753906 -91.703125 30.703125 -95.921875 C 38.648438 -100.140625 47.5625 -102.25 57.4375 -102.25 C 67.3125 -102.25 76.222656 -100.140625 84.171875 -95.921875 C 92.117188 -91.703125 98.378906 -85.648438 102.953125 -77.765625 C 107.535156 -69.878906 109.828125 -60.757812 109.828125 -50.40625 C 109.828125 -40.039062 107.507812 -30.914062 102.875 -23.03125 C 98.238281 -15.144531 91.914062 -9.09375 83.90625 -4.875 C 75.894531 -0.664062 66.953125 1.4375 57.078125 1.4375 Z M 57.078125 -25.296875 C 62.984375 -25.296875 68.007812 -27.460938 72.15625 -31.796875 C 76.3125 -36.128906 78.390625 -42.332031 78.390625 -50.40625 C 78.390625 -58.46875 76.375 -64.664062 72.34375 -69 C 68.3125 -73.332031 63.34375 -75.5 57.4375 -75.5 C 51.414062 -75.5 46.414062 -73.363281 42.4375 -69.09375 C 38.46875 -64.820312 36.484375 -58.59375 36.484375 -50.40625 C 36.484375 -42.332031 38.441406 -36.128906 42.359375 -31.796875 C 46.273438 -27.460938 51.179688 -25.296875 57.078125 -25.296875 Z M 57.078125 -25.296875 "/></g></g></g><g fill="#f2f9ff" fill-opacity="1"><g transform="translate(494.286143, 250.157049)"><g><path d="M 49.5 -102.25 C 56.601562 -102.25 62.832031 -100.800781 68.1875 -97.90625 C 73.550781 -95.019531 77.675781 -91.226562 80.5625 -86.53125 L 80.5625 -100.796875 L 111.453125 -100.796875 L 111.453125 -0.1875 C 111.453125 9.09375 109.613281 17.492188 105.9375 25.015625 C 102.269531 32.546875 96.671875 38.535156 89.140625 42.984375 C 81.617188 47.441406 72.257812 49.671875 61.0625 49.671875 C 46.125 49.671875 34.019531 46.148438 24.75 39.109375 C 15.476562 32.066406 10.175781 22.523438 8.84375 10.484375 L 39.375 10.484375 C 40.34375 14.328125 42.628906 17.363281 46.234375 19.59375 C 49.847656 21.820312 54.304688 22.9375 59.609375 22.9375 C 65.992188 22.9375 71.082031 21.097656 74.875 17.421875 C 78.664062 13.753906 80.5625 7.882812 80.5625 -0.1875 L 80.5625 -14.453125 C 77.550781 -9.753906 73.394531 -5.929688 68.09375 -2.984375 C 62.800781 -0.0351562 56.601562 1.4375 49.5 1.4375 C 41.1875 1.4375 33.65625 -0.695312 26.90625 -4.96875 C 20.164062 -9.238281 14.835938 -15.316406 10.921875 -23.203125 C 7.015625 -31.097656 5.0625 -40.222656 5.0625 -50.578125 C 5.0625 -60.929688 7.015625 -70.019531 10.921875 -77.84375 C 14.835938 -85.675781 20.164062 -91.703125 26.90625 -95.921875 C 33.65625 -100.140625 41.1875 -102.25 49.5 -102.25 Z M 80.5625 -50.40625 C 80.5625 -58.101562 78.421875 -64.179688 74.140625 -68.640625 C 69.867188 -73.097656 64.664062 -75.328125 58.53125 -75.328125 C 52.382812 -75.328125 47.171875 -73.128906 42.890625 -68.734375 C 38.617188 -64.335938 36.484375 -58.285156 36.484375 -50.578125 C 36.484375 -42.867188 38.617188 -36.753906 42.890625 -32.234375 C 47.171875 -27.722656 52.382812 -25.46875 58.53125 -25.46875 C 64.664062 -25.46875 69.867188 -27.695312 74.140625 -32.15625 C 78.421875 -36.613281 80.5625 -42.695312 80.5625 -50.40625 Z M 80.5625 -50.40625 "/></g></g></g><g fill="#f2f9ff" fill-opacity="1"><g transform="translate(616.945909, 250.157049)"><g><path d="M 106.21875 -52.03125 C 106.21875 -49.132812 106.035156 -46.125 105.671875 -43 L 35.765625 -43 C 36.242188 -36.726562 38.257812 -31.9375 41.8125 -28.625 C 45.363281 -25.3125 49.734375 -23.65625 54.921875 -23.65625 C 62.617188 -23.65625 67.972656 -26.910156 70.984375 -33.421875 L 103.875 -33.421875 C 102.1875 -26.796875 99.144531 -20.832031 94.75 -15.53125 C 90.351562 -10.238281 84.84375 -6.085938 78.21875 -3.078125 C 71.59375 -0.0664062 64.1875 1.4375 56 1.4375 C 46.125 1.4375 37.332031 -0.664062 29.625 -4.875 C 21.914062 -9.09375 15.894531 -15.113281 11.5625 -22.9375 C 7.226562 -30.769531 5.0625 -39.925781 5.0625 -50.40625 C 5.0625 -60.875 7.195312 -70.019531 11.46875 -77.84375 C 15.75 -85.675781 21.738281 -91.703125 29.4375 -95.921875 C 37.144531 -100.140625 46 -102.25 56 -102.25 C 65.75 -102.25 74.414062 -100.195312 82 -96.09375 C 89.59375 -92 95.523438 -86.160156 99.796875 -78.578125 C 104.078125 -70.992188 106.21875 -62.144531 106.21875 -52.03125 Z M 74.609375 -60.15625 C 74.609375 -65.445312 72.800781 -69.660156 69.1875 -72.796875 C 65.570312 -75.929688 61.054688 -77.5 55.640625 -77.5 C 50.460938 -77.5 46.097656 -75.992188 42.546875 -72.984375 C 38.992188 -69.972656 36.796875 -65.695312 35.953125 -60.15625 Z M 74.609375 -60.15625 "/></g></g></g><g fill="#f2f9ff" fill-opacity="1"><g transform="translate(728.224829, 250.157049)"><g><path d="M 110.734375 -100.796875 L 110.734375 0 L 79.84375 0 L 79.84375 -13.734375 C 76.707031 -9.273438 72.457031 -5.691406 67.09375 -2.984375 C 61.738281 -0.273438 55.8125 1.078125 49.3125 1.078125 C 41.601562 1.078125 34.796875 -0.632812 28.890625 -4.0625 C 22.992188 -7.5 18.421875 -12.46875 15.171875 -18.96875 C 11.921875 -25.46875 10.296875 -33.113281 10.296875 -41.90625 L 10.296875 -100.796875 L 41 -100.796875 L 41 -46.0625 C 41 -39.320312 42.742188 -34.082031 46.234375 -30.34375 C 49.734375 -26.613281 54.429688 -24.75 60.328125 -24.75 C 66.347656 -24.75 71.101562 -26.613281 74.59375 -30.34375 C 78.09375 -34.082031 79.84375 -39.320312 79.84375 -46.0625 L 79.84375 -100.796875 Z M 110.734375 -100.796875 "/></g></g></g><g fill="#f2f9ff" fill-opacity="1"><g transform="translate(849.981312, 250.157049)"><g><path d="M 42.09375 -86.53125 C 44.976562 -91.226562 49.128906 -95.019531 54.546875 -97.90625 C 59.972656 -100.800781 66.175781 -102.25 73.15625 -102.25 C 81.46875 -102.25 88.992188 -100.140625 95.734375 -95.921875 C 102.484375 -91.703125 107.8125 -85.675781 111.71875 -77.84375 C 115.632812 -70.019531 117.59375 -60.929688 117.59375 -50.578125 C 117.59375 -40.222656 115.632812 -31.097656 111.71875 -23.203125 C 107.8125 -15.316406 102.484375 -9.238281 95.734375 -4.96875 C 88.992188 -0.695312 81.46875 1.4375 73.15625 1.4375 C 66.050781 1.4375 59.847656 0.0234375 54.546875 -2.796875 C 49.253906 -5.628906 45.101562 -9.394531 42.09375 -14.09375 L 42.09375 0 L 11.203125 0 L 11.203125 -133.671875 L 42.09375 -133.671875 Z M 86.171875 -50.578125 C 86.171875 -58.285156 84.03125 -64.335938 79.75 -68.734375 C 75.476562 -73.128906 70.210938 -75.328125 63.953125 -75.328125 C 57.804688 -75.328125 52.59375 -73.097656 48.3125 -68.640625 C 44.039062 -64.179688 41.90625 -58.101562 41.90625 -50.40625 C 41.90625 -42.695312 44.039062 -36.613281 48.3125 -32.15625 C 52.59375 -27.695312 57.804688 -25.46875 63.953125 -25.46875 C 70.085938 -25.46875 75.320312 -27.722656 79.65625 -32.234375 C 84 -36.753906 86.171875 -42.867188 86.171875 -50.578125 Z M 86.171875 -50.578125 "/></g></g></g><g clip-path="url(#f244de857b)"><g clip-path="url(#83c9b4a009)"><path fill="#f2f9ff" d="M 105.519531 109.160156 L 105.519531 255.628906 L 224.253906 255.628906 L 224.253906 109.160156 Z M 105.519531 109.160156 " fill-opacity="1" fill-rule="nonzero"/></g></g><g clip-path="url(#09d72dde21)"><g clip-path="url(#906d24b8ba)"><path fill="#f2f9ff" d="M 70.539062 152.460938 L 70.539062 283.414062 L 160.625 283.414062 L 160.625 152.460938 Z M 70.539062 152.460938 " fill-opacity="1" fill-rule="nonzero"/></g></g><g clip-path="url(#0dc70a5a9f)"><g clip-path="url(#6e534aca4a)"><g clip-path="url(#a0bba6eeff)"><path fill="#f2f9ff" d="M 102.941406 155.890625 L 109.234375 152.339844 L 164.605469 250.535156 L 158.3125 254.085938 Z M 102.941406 155.890625 " fill-opacity="1" fill-rule="nonzero"/></g></g></g><g clip-path="url(#1df302a6af)"><g clip-path="url(#aa4da21096)"><path fill="#f2f9ff" d="M 154.132812 245.371094 L 164.113281 245.371094 L 164.113281 258.546875 L 154.132812 258.546875 Z M 154.132812 245.371094 " fill-opacity="1" fill-rule="nonzero"/></g></g><g clip-path="url(#40d6a83ad7)"><g clip-path="url(#5f7cef0b33)"><path fill="#f2f9ff" d="M 101.972656 149.5 L 111.953125 149.5 L 111.953125 162.675781 L 101.972656 162.675781 Z M 101.972656 149.5 " fill-opacity="1" fill-rule="nonzero"/></g></g></svg>